<svg id="Layer_1" data-name="Layer 1" xmlns="http://www.w3.org/2000/svg" xmlns:xlink="http://www.w3.org/1999/xlink" viewBox="0 0 506 506"><defs><style>.cls-1{fill:url(#linear-gradient);}</style><linearGradient id="linear-gradient" x1="258" y1="511" x2="258" y2="5" gradientUnits="userSpaceOnUse"><stop offset="0" stop-color="#360940"/><stop offset="0.31" stop-color="#782848"/><stop offset="0.64" stop-color="#b94550"/><stop offset="0.88" stop-color="#e15855"/><stop offset="1" stop-color="#f05f57"/></linearGradient></defs><title>InsideLink</title><path class="cls-1" d="M404,151H365V112a107,107,0,1,0-214,0v39H112a107,107,0,1,0,0,214h39v39a107,107,0,1,0,214,0V365h39a107,107,0,1,0,0-214Zm0,173.58H213.88V365h110.7v39a66.58,66.58,0,1,1-133.16,0V213.88H151v110.7H112a66.58,66.58,0,1,1,0-133.16h190.1V151H191.42V112a66.58,66.58,0,1,1,133.16,0v190.1H365V191.42h39a66.58,66.58,0,1,1,0,133.16Z" transform="translate(-5 -5)"/></svg>